<svg width="25" height="25" viewBox="0 0 25 25" fill="none" xmlns="http://www.w3.org/2000/svg">
<g id="clarity:search-line" clip-path="url(#clip0_2204_21206)">
<path id="Vector" d="M11.7126 3.49606C13.1567 3.49474 14.5687 3.92176 15.77 4.72309C16.9714 5.52442 17.9081 6.66407 18.4616 7.99785C19.0152 9.33163 19.1607 10.7996 18.8798 12.2161C18.5989 13.6326 17.9041 14.934 16.8835 15.9556C15.8628 16.9772 14.5621 17.6731 13.1458 17.9553C11.7296 18.2375 10.2615 18.0933 8.92719 17.541C7.5929 16.9887 6.4524 16.053 5.64997 14.8524C4.84754 13.6518 4.41924 12.2401 4.41924 10.7961C4.42799 8.86383 5.19899 7.01314 6.56468 5.64621C7.93036 4.27927 9.78035 3.50658 11.7126 3.49606ZM11.7126 2.12939C9.99846 2.12939 8.32285 2.63769 6.89763 3.58999C5.4724 4.5423 4.36157 5.89584 3.70561 7.47947C3.04965 9.0631 2.87802 10.8057 3.21243 12.4868C3.54684 14.168 4.37226 15.7123 5.58431 16.9243C6.79637 18.1364 8.34062 18.9618 10.0218 19.2962C11.703 19.6306 13.4455 19.459 15.0292 18.803C16.6128 18.1471 17.9663 17.0362 18.9186 15.611C19.8709 14.1858 20.3792 12.5102 20.3792 10.7961C20.3792 8.49752 19.4661 6.29312 17.8408 4.6678C16.2155 3.04249 14.0111 2.12939 11.7126 2.12939Z" fill="black"/>
<path id="Vector_2" d="M24.1598 22.3226L19.2465 17.376L18.2998 18.316L23.2131 23.2626C23.2749 23.3248 23.3482 23.3742 23.429 23.408C23.5098 23.4418 23.5965 23.4594 23.6841 23.4597C23.7717 23.46 23.8585 23.443 23.9396 23.4098C24.0206 23.3766 24.0943 23.3277 24.1565 23.266C24.2186 23.2043 24.268 23.1309 24.3018 23.0501C24.3356 22.9693 24.3532 22.8826 24.3535 22.795C24.3538 22.7074 24.3369 22.6206 24.3036 22.5396C24.2704 22.4585 24.2215 22.3848 24.1598 22.3226Z" fill="black"/>
</g>
<defs>
<clipPath id="clip0_2204_21206">
<rect width="24" height="24" fill="white" transform="translate(0.826172 0.129395)"/>
</clipPath>
</defs>
</svg>
