<svg width="64" height="48" viewBox="0 0 64 48" fill="none" xmlns="http://www.w3.org/2000/svg">
<g id="et:upload" clip-path="url(#clip0_2136_3270)">
<path id="Vector" d="M51.437 19.482C50.7965 9.564 43.8995 0 31.25 0C19.6805 0 10.7585 8.5995 10.286 20.076C3.956 22.0455 0.5 28.8195 0.5 33.75C0.5 41.3415 6.809 48 14 48H23.75C23.9489 48 24.1397 47.921 24.2803 47.7803C24.421 47.6397 24.5 47.4489 24.5 47.25C24.5 47.0511 24.421 46.8603 24.2803 46.7197C24.1397 46.579 23.9489 46.5 23.75 46.5H14C7.607 46.5 2 40.542 2 33.75C2 29.1735 6.011 21 14 21H16.25C16.4489 21 16.6397 20.921 16.7803 20.7803C16.921 20.6397 17 20.4489 17 20.25C17 20.0511 16.921 19.8603 16.7803 19.7197C16.6397 19.579 16.4489 19.5 16.25 19.5H14C13.2365 19.5 12.515 19.5855 11.8115 19.7085C12.3995 10.7235 19.229 1.5 31.25 1.5C44.132 1.5 50 11.6085 50 21V23.25C50 23.4489 50.079 23.6397 50.2197 23.7803C50.3603 23.921 50.5511 24 50.75 24C50.9489 24 51.1397 23.921 51.2803 23.7803C51.421 23.6397 51.5 23.4489 51.5 23.25V20.9865C56.0285 21.483 62 26.343 62 33.75C62 39.489 56.4635 46.5 50 46.5H38.75C33.893 46.5 32 44.607 32 39.75V19.1745L38.117 25.2795C38.1861 25.3512 38.2688 25.4085 38.3602 25.4479C38.4517 25.4873 38.55 25.5082 38.6496 25.5092C38.7492 25.5102 38.848 25.4913 38.9402 25.4537C39.0324 25.4162 39.1162 25.3606 39.1868 25.2903C39.2573 25.22 39.3131 25.1363 39.3509 25.0442C39.3888 24.9521 39.4079 24.8533 39.4072 24.7538C39.4064 24.6542 39.3859 24.5557 39.3467 24.4642C39.3075 24.3726 39.2505 24.2898 39.179 24.2205L32.4875 17.5425C31.5965 16.6545 30.905 16.6545 30.0155 17.5425L23.324 24.2205C23.1874 24.3619 23.1118 24.5514 23.1135 24.7481C23.1152 24.9447 23.1941 25.1328 23.3331 25.2719C23.4722 25.4109 23.6603 25.4898 23.8569 25.4915C24.0536 25.4932 24.243 25.4176 24.3845 25.281L30.5 19.1745V39.75C30.5 45.456 33.044 48 38.75 48H50C57.2705 48 63.5 40.164 63.5 33.75C63.5 25.9995 57.1655 19.938 51.437 19.482Z" fill="black"/>
</g>
<defs>
<clipPath id="clip0_2136_3270">
<rect width="63" height="48" fill="white" transform="translate(0.5)"/>
</clipPath>
</defs>
</svg>
