<svg width="48" height="49" viewBox="0 0 48 49" fill="none" xmlns="http://www.w3.org/2000/svg">
<g id="Frame">
<path id="Vector" d="M22.0574 5.20847C23.2654 4.53729 24.7344 4.53729 25.9426 5.20845L40.9712 13.5577C41.6062 13.9105 42 14.5797 42 15.306V31.7756C42 33.2282 41.2124 34.5668 39.9426 35.2722L25.9426 43.05C24.7344 43.7212 23.2654 43.7212 22.0574 43.05L8.05742 35.2722C6.78756 34.5668 6 33.2282 6 31.7756V15.306C6 14.5797 6.39378 13.9105 7.02872 13.5577L22.0574 5.20847Z" stroke="#7AA262" stroke-width="2" stroke-linecap="round" stroke-linejoin="round"/>
<path id="Vector_2" d="M15 9.12939L33 19.1294V26.1294" stroke="#7AA262" stroke-width="2" stroke-linecap="round" stroke-linejoin="round"/>
<path id="Vector_3" d="M12 24.7856L18 28.1294" stroke="#7AA262" stroke-width="2" stroke-linecap="round" stroke-linejoin="round"/>
<path id="Vector_4" d="M6 14.1294L24 24.1294M24 24.1294L42 14.1294M24 24.1294V44.1294" stroke="#7AA262" stroke-width="2" stroke-linejoin="round"/>
</g>
</svg>
