<svg width="39" height="39" viewBox="0 0 39 39" fill="none" xmlns="http://www.w3.org/2000/svg">
<g id="Frame" clip-path="url(#clip0_2204_21186)">
<path id="Vector" d="M7.26758 0.129395H9.64258V7.25439H7.26758V0.129395Z" fill="#7AA262"/>
<path id="Vector_2" d="M26.2676 0.129395H28.6426V7.25439H26.2676V0.129395Z" fill="#7AA262"/>
<path id="Vector_3" d="M2.26758 33.3794V33.6294H2.51758H15.6639C16.0322 34.3478 16.4105 34.9391 16.9039 35.5044H0.392578V2.75439H4.64258V9.62939V9.87939H4.89258H12.0176H12.2676V9.62939V2.75439H23.6426V9.62939V9.87939H23.8926H31.0176H31.2676V9.62939V2.75439H35.5176V16.8907C34.9523 16.3973 34.361 16.0191 33.6426 15.6507V14.3794V14.1294H33.3926H2.51758H2.26758V14.3794V33.3794Z" fill="#7AA262" stroke="white" stroke-width="0.5"/>
<path id="Vector_4" d="M33.3926 28.6294H26.2676V21.5044H28.6426V26.2544H33.3926V28.6294Z" fill="#7AA262"/>
<path id="Vector_5" d="M27.4551 19.1294C31.9676 19.1294 35.7676 22.9294 35.7676 27.4419C35.7676 31.9544 31.9676 35.7544 27.4551 35.7544C22.9426 35.7544 19.1426 31.9544 19.1426 27.4419C19.1426 22.9294 22.9426 19.1294 27.4551 19.1294ZM27.4551 16.7544C21.5176 16.7544 16.7676 21.5044 16.7676 27.4419C16.7676 33.3794 21.5176 38.1294 27.4551 38.1294C33.3926 38.1294 38.1426 33.3794 38.1426 27.4419C38.1426 21.5044 33.3926 16.7544 27.4551 16.7544Z" fill="#7AA262"/>
</g>
<defs>
<clipPath id="clip0_2204_21186">
<rect width="38" height="38" fill="white" transform="translate(0.142578 0.129395)"/>
</clipPath>
</defs>
</svg>
