<svg width="49" height="49" viewBox="0 0 49 49" fill="none" xmlns="http://www.w3.org/2000/svg">
<g id="Frame" clip-path="url(#clip0_2204_21174)">
<path id="Vector" d="M14.5 38.1294C16.7091 38.1294 18.5 36.3385 18.5 34.1294C18.5 31.9203 16.7091 30.1294 14.5 30.1294C12.2909 30.1294 10.5 31.9203 10.5 34.1294C10.5 36.3385 12.2909 38.1294 14.5 38.1294Z" stroke="#7AA262" stroke-width="2" stroke-linecap="round" stroke-linejoin="round"/>
<path id="Vector_2" d="M34.5 38.1294C36.7091 38.1294 38.5 36.3385 38.5 34.1294C38.5 31.9203 36.7091 30.1294 34.5 30.1294C32.2909 30.1294 30.5 31.9203 30.5 34.1294C30.5 36.3385 32.2909 38.1294 34.5 38.1294Z" stroke="#7AA262" stroke-width="2" stroke-linecap="round" stroke-linejoin="round"/>
<path id="Vector_3" d="M10.5 34.1294H6.5V26.1294M4.5 10.1294H26.5V34.1294M18.5 34.1294H30.5M38.5 34.1294H42.5V22.1294M42.5 22.1294H26.5M42.5 22.1294L36.5 12.1294H26.5" stroke="#7AA262" stroke-width="2" stroke-linecap="round" stroke-linejoin="round"/>
<path id="Vector_4" d="M6.5 18.1294H14.5" stroke="#7AA262" stroke-width="2" stroke-linecap="round" stroke-linejoin="round"/>
</g>
<defs>
<clipPath id="clip0_2204_21174">
<rect width="48" height="48" fill="white" transform="translate(0.5 0.129395)"/>
</clipPath>
</defs>
</svg>
