<svg width="49" height="49" viewBox="0 0 49 49" fill="none" xmlns="http://www.w3.org/2000/svg">
<g id="Frame">
<path id="Vector" d="M20.5 33.1294L26.5 35.1294C26.5 35.1294 41.5 32.1294 43.5 32.1294C45.5 32.1294 45.5 34.1294 43.5 36.1294C41.5 38.1294 34.5 44.1294 28.5 44.1294C22.5 44.1294 18.5 41.1294 14.5 41.1294C10.5 41.1294 4.5 41.1294 4.5 41.1294" stroke="#7AA262" stroke-width="2" stroke-linecap="round" stroke-linejoin="round"/>
<path id="Vector_2" d="M4.5 29.1294C6.5 27.1294 10.5 24.1294 14.5 24.1294C18.5 24.1294 28 28.1294 29.5 30.1294C31 32.1294 26.5 35.1294 26.5 35.1294" stroke="#7AA262" stroke-width="2" stroke-linecap="round" stroke-linejoin="round"/>
<path id="Vector_3" d="M16.5 18.1294V10.1294C16.5 9.02482 17.3954 8.12939 18.5 8.12939H42.5C43.6046 8.12939 44.5 9.02482 44.5 10.1294V26.1294" stroke="#7AA262" stroke-width="2" stroke-linecap="round" stroke-linejoin="round"/>
<path id="Vector_4" d="M35.5 8.12939H25.5V17.1294H35.5V8.12939Z" fill="#7AA262" stroke="#7AA262" stroke-linecap="round" stroke-linejoin="round"/>
</g>
</svg>
