<svg width="28" height="29" viewBox="0 0 28 29" fill="none" xmlns="http://www.w3.org/2000/svg">
<g id="Vector" filter="url(#filter0_d_2136_3222)">
<path d="M10.4 15.5523L14 11.844L17.6 15.5523L19 14.1102L15.4 10.4018L19 6.69347L17.6 5.25133L14 8.95969L10.4 5.25133L9 6.69347L12.6 10.4018L9 14.1102L10.4 15.5523ZM14 20.7028C12.6167 20.7028 11.3167 20.4323 10.1 19.8911C8.88334 19.35 7.825 18.6162 6.925 17.6898C6.025 16.7634 5.31267 15.6732 4.788 14.4192C4.26333 13.1652 4.00067 11.8261 4 10.4018C3.99933 8.97755 4.262 7.63842 4.788 6.38444C5.314 5.13047 6.02633 4.04028 6.925 3.11387C7.82367 2.18747 8.882 1.4537 10.1 0.912549C11.318 0.371403 12.618 0.10083 14 0.10083C15.382 0.10083 16.682 0.371403 17.9 0.912549C19.118 1.4537 20.1763 2.18747 21.075 3.11387C21.9737 4.04028 22.6863 5.13047 23.213 6.38444C23.7397 7.63842 24.002 8.97755 24 10.4018C23.998 11.8261 23.7353 13.1652 23.212 14.4192C22.6887 15.6732 21.9763 16.7634 21.075 17.6898C20.1737 18.6162 19.1153 19.3503 17.9 19.8921C16.6847 20.434 15.3847 20.7042 14 20.7028ZM14 18.6426C16.2333 18.6426 18.125 17.8443 19.675 16.2477C21.225 14.651 22 12.7024 22 10.4018C22 8.10128 21.225 6.15267 19.675 4.55601C18.125 2.95936 16.2333 2.16103 14 2.16103C11.7667 2.16103 9.875 2.95936 8.325 4.55601C6.775 6.15267 6 8.10128 6 10.4018C6 12.7024 6.775 14.651 8.325 16.2477C9.875 17.8443 11.7667 18.6426 14 18.6426Z" fill="#212121"/>
</g>
<defs>
<filter id="filter0_d_2136_3222" x="0" y="0.10083" width="28" height="28.6021" filterUnits="userSpaceOnUse" color-interpolation-filters="sRGB">
<feFlood flood-opacity="0" result="BackgroundImageFix"/>
<feColorMatrix in="SourceAlpha" type="matrix" values="0 0 0 0 0 0 0 0 0 0 0 0 0 0 0 0 0 0 127 0" result="hardAlpha"/>
<feOffset dy="4"/>
<feGaussianBlur stdDeviation="2"/>
<feComposite in2="hardAlpha" operator="out"/>
<feColorMatrix type="matrix" values="0 0 0 0 0 0 0 0 0 0 0 0 0 0 0 0 0 0 0.25 0"/>
<feBlend mode="normal" in2="BackgroundImageFix" result="effect1_dropShadow_2136_3222"/>
<feBlend mode="normal" in="SourceGraphic" in2="effect1_dropShadow_2136_3222" result="shape"/>
</filter>
</defs>
</svg>
